<?xml version="1.0" encoding="UTF-8"?>
<svg width="100px" height="101px" viewBox="0 0 100 101" version="1.1" xmlns="http://www.w3.org/2000/svg" xmlns:xlink="http://www.w3.org/1999/xlink">
    <title>Shape</title>
    <g id="Page-1" stroke="none" stroke-width="1" fill="none" fill-rule="evenodd">
        <g id="chevron.down.circle.fill" transform="translate(-1400.000000, -1040.000000)" fill="#000000" fill-rule="nonzero">
            <g id="Symbols" transform="translate(498.000000, 618.000000)">
                <g id="Regular-M" transform="translate(901.300000, 422.000000)">
                    <path d="M50.5449,100.5508 C77.791,100.5508 100.35,77.94336 100.35,50.7461 C100.35,23.5 77.7422,0.9414 50.4961,0.9414 C23.2988,0.9414 0.74023,23.5 0.74023,50.7461 C0.74023,77.94336 23.3477,100.5508 50.5449,100.5508 Z M55.5742,66.8594 C52.4004,70.2285 48.7383,70.2285 45.5645,66.8594 L25.8379,45.9121 C24.2754,44.3008 24.2754,42.0059 25.6426,40.541 C27.2051,38.9297 29.6465,38.9297 31.0625,40.4434 L50.5449,61.0977 L70.0273,40.4434 C71.4922,38.9297 73.8848,38.9785 75.4961,40.541 C76.9121,41.957 76.8145,44.3008 75.3008,45.9121 L55.5742,66.8594 Z" id="Shape"></path>
                </g>
            </g>
        </g>
    </g>
</svg>